<?xml version="1.0" encoding="utf-8"?>
<!-- Generator: Adobe Illustrator 27.3.1, SVG Export Plug-In . SVG Version: 6.00 Build 0)  -->
<svg version="1.1" xmlns="http://www.w3.org/2000/svg" xmlns:xlink="http://www.w3.org/1999/xlink" x="0px" y="0px"
	 viewBox="0 0 1920 1080" style="enable-background:new 0 0 1920 1080;" xml:space="preserve">
<style type="text/css">
	.st0{fill:#EC4023;}
	.st1{fill:#F5861F;}
	.st2{fill:#231F20;}
</style>
<g id="Layer_4">
	<g>
		<g>
			<rect x="1336.69" y="138.94" class="st0" width="116" height="116"/>
			<rect x="466.69" y="138.94" class="st0" width="116" height="116"/>
			<rect x="1336.69" y="293.94" class="st0" width="116" height="116"/>
			<rect x="1162.69" y="293.94" class="st0" width="116" height="116"/>
			<rect x="640.69" y="293.94" class="st0" width="116" height="116"/>
			<rect x="466.69" y="293.94" class="st0" width="116" height="116"/>
			<rect x="1336.69" y="448.94" class="st0" width="116" height="116"/>
			<rect x="1162.69" y="448.94" class="st0" width="116" height="116"/>
			<rect x="988.69" y="448.94" class="st0" width="116" height="116"/>
			<rect x="814.69" y="448.94" class="st0" width="116" height="116"/>
			<rect x="640.69" y="448.94" class="st0" width="116" height="116"/>
			<rect x="466.69" y="449.94" class="st0" width="116" height="116"/>
		</g>
		
			<rect id="background_00000062190923778610485150000015853802803676608187_" x="466.69" y="602.94" class="st1" width="987" height="183"/>
		<g>
			<g>
				<path class="st1" d="M493.5,939.94l-27.19-52h11.65l12.96,25.58c3.58,7.01,6.67,13.33,8.89,19.42h0.25
					c2.34-6.01,5.8-12.56,9.5-19.34l14.07-25.66h11.52l-29.79,52H493.5z"/>
				<path class="st1" d="M543.69,887.94h45v6h-34v17h31v6h-31v23h-11V887.94z"/>
				<path class="st1" d="M649.7,939.94l-10.75-11.62c-4.37-4.45-7.12-7.33-9.75-10.38h-0.25c-2.37,3.04-4.75,5.85-9.12,10.45
					l-10.12,11.55h-12.07l25.46-26.31l-24.47-25.69h12.39l11.01,12.2c3.09,3.4,5.44,6.02,7.67,8.8h0.37
					c2.35-3.09,4.45-5.48,7.54-8.8l11.38-12.2h12.27l-25.34,25.3l25.96,26.7H649.7z"/>
				<path class="st1" d="M752.12,939.94c-2.29-1.45-4.47-2.89-7.6-5.02c-7,4.11-14.85,5.86-23.78,5.86
					c-15.81,0-24.98-6.69-24.98-14.38c0-7,6.64-11.79,15.93-14.99v-0.23c-4.22-3.35-6.76-7.08-6.76-10.73
					c0-6.24,7.12-12.63,20.64-12.63c10.14,0,17.98,4.26,17.98,10.88c0,5.4-4.95,9.66-17.86,13.7v0.23
					c6.88,5.02,14.6,10.65,19.79,14.3c3.74-3.58,6.28-8.52,7.84-14.99h9.66c-2.17,8.07-5.67,14.46-11.71,18.95
					c4.35,2.89,8.57,5.78,13.4,9.05H752.12z M739.29,931.3c-4.92-3.38-14.16-9.68-23.39-16.29c-4.43,1.77-10.71,5.07-10.71,10.53
					c0,5.92,7.02,10.45,16.99,10.45C729.32,935.99,735.35,933.99,739.29,931.3z M714.05,899.71c0,3.69,2.71,6.53,6.28,9.3
					c8.37-3,13.79-5.76,13.79-10.15c0-3.15-2.83-6.69-9.6-6.69C717.62,892.18,714.05,895.71,714.05,899.71z"/>
				<path class="st1" d="M814.67,923.94l-8.46,16h-11.64l28.3-52h12.98l28.43,52h-12.01l-8.7-16H814.67z M841.42,918.94l-8.01-14.69
					c-1.82-3.33-3.03-6.36-4.24-9.31h-0.24c-1.21,3.03-2.55,6.13-4.12,9.24l-8.01,14.76H841.42z"/>
				<path class="st1" d="M876.69,939.94v-52h11.88l26.34,26.31c6.1,6.09,10.85,11.57,14.76,16.9l0.24-0.08
					c-0.98-6.94-1.22-13.27-1.22-21.37v-21.76h10v52h-11.02l-26.1-26.39c-5.73-5.79-11.22-11.73-15.37-17.36l-0.37,0.08
					c0.61,6.56,0.85,12.81,0.85,21.45v22.22H876.69z"/>
				<path class="st1" d="M968.69,887.94v52h-11v-52H968.69z"/>
				<path class="st1" d="M1056.72,917.25c-0.61-7.21-1.35-15.87-1.23-22.31h-0.25c-2.84,6.1-6.31,12.58-10.51,19.76l-14.72,25.24
					h-8.16l-13.48-24.78c-3.96-7.33-7.3-14.05-9.64-20.22h-0.13c-0.25,6.44-0.86,15.1-1.6,22.84l-2.21,22.16h-10.23l5.81-52h13.38
					l14.32,25.35c3.49,6.45,6.35,12.21,8.47,17.65h0.37c2.12-5.29,5.11-11.04,8.84-17.65l14.95-25.35h13.39l5.19,52h-10.48
					L1056.72,917.25z"/>
				<path class="st1" d="M1098.24,923.94l-8.46,16h-11.64l28.3-52h12.98l28.43,52h-12.01l-8.71-16H1098.24z M1124.99,918.94
					l-8.01-14.69c-1.82-3.33-3.03-6.36-4.24-9.31h-0.24c-1.21,3.03-2.55,6.13-4.12,9.24l-8.01,14.76H1124.99z"/>
				<path class="st1" d="M1165.69,893.94h-25v-6h61v6h-25v46h-11V893.94z"/>
				<path class="st1" d="M1222.69,887.94v52h-11v-52H1222.69z"/>
				<path class="st1" d="M1311.96,913.77c0,17.83-17.36,27.28-38.54,27.28c-21.92,0-37.31-10.61-37.31-26.29
					c0-16.45,16.38-27.21,38.54-27.21C1297.31,887.56,1311.96,898.4,1311.96,913.77z M1247.57,914.62c0,11.07,9.6,20.98,26.47,20.98
					c16.99,0,26.6-9.76,26.6-21.52c0-10.3-8.62-21.06-26.47-21.06C1256.44,893.02,1247.57,903.24,1247.57,914.62z"/>
				<path class="st1" d="M1325.69,939.94v-52h11.88l26.34,26.31c6.1,6.09,10.85,11.57,14.76,16.9l0.24-0.08
					c-0.98-6.94-1.22-13.27-1.22-21.37v-21.76h10v52h-11.02l-26.1-26.39c-5.73-5.79-11.22-11.73-15.37-17.36l-0.37,0.08
					c0.61,6.56,0.85,12.81,0.85,21.45v22.22H1325.69z"/>
				<path class="st1" d="M1405.42,932.07c4.8,1.84,11.82,3.38,19.21,3.38c10.96,0,17.36-3.61,17.36-8.84
					c0-4.84-4.43-7.61-15.64-10.3c-13.54-3-21.92-7.38-21.92-14.68c0-8.07,10.71-14.06,26.84-14.06c8.5,0,14.65,1.23,18.35,2.54
					l-2.96,5.46c-2.71-0.92-8.25-2.46-15.76-2.46c-11.33,0-15.64,4.23-15.64,7.76c0,4.84,5.05,7.22,16.5,9.99
					c14.04,3.38,21.18,7.61,21.18,15.22c0,7.99-9.48,14.91-29.06,14.91c-8,0-16.74-1.46-21.18-3.3L1405.42,932.07z"/>
			</g>
		</g>
		<rect id="line_00000132058375548302762000000003753318814623676333_" x="466.69" y="822.94" width="987" height="27"/>
		<g id="compix_00000037662331625548701340000013445626870752963482_">
			<path class="st2" d="M652.35,742.39c-8.51,2.43-25.54,4.86-47.35,4.86c-50.54,0-88.58-18.24-88.58-51.83
				c0-32.07,38.04-53.8,93.63-53.8c22.34,0,36.44,2.74,42.56,4.56l-5.59,10.79c-8.78-2.43-21.28-4.26-36.17-4.26
				c-42.03,0-69.96,15.35-69.96,42.25c0,25.08,25.27,41.19,68.89,41.19c14.1,0,28.46-1.67,37.77-4.26L652.35,742.39z"/>
			<path class="st2" d="M828.96,693.45c0,35.26-37.5,53.96-83.26,53.96c-47.35,0-80.6-20.97-80.6-51.98
				c0-32.53,35.38-53.8,83.26-53.8C797.31,641.62,828.96,663.05,828.96,693.45z M689.85,695.12c0,21.89,20.75,41.49,57.19,41.49
				c36.71,0,57.45-19.3,57.45-42.56c0-20.37-18.62-41.65-57.19-41.65C709,652.42,689.85,672.63,689.85,695.12z"/>
			<path class="st2" d="M1010.09,700.56c-1.34-14.41-2.95-31.74-2.68-44.62h-0.5c-6.14,12.06-13.63,24.88-22.71,39.08l-31.79,49.92
				h-17.63l-29.12-49c-8.55-14.5-15.76-27.78-20.84-40h-0.23c-0.54,12.88-1.88,30.2-3.49,45.69l-4.83,44.31h-22.01l12.45-102h30.18
				l30.21,48.93c7.35,12.46,13.4,23.56,17.86,34.07h0.79c4.47-10.21,10.77-21.31,18.65-34.07l31.52-48.93h30.18l11.12,102h-22.55
				L1010.09,700.56z"/>
			<path class="st2" d="M1072.69,644.72c11.1-1.06,25.64-1.98,44.15-1.98c22.74,0,39.39,3.04,49.97,8.51
				c9.78,4.86,15.6,12.31,15.6,21.43c0,9.27-4.76,16.57-13.75,21.89c-12.16,7.45-31.99,11.25-54.46,11.25
				c-6.87,0-13.22-0.15-18.51-0.91v41.04h-23V644.72z M1095.69,693.91c5.05,0.76,11.44,1.06,19.15,1.06
				c27.93,0,44.95-7.75,44.95-21.89c0-13.53-16.76-20.06-42.29-20.06c-10.11,0-17.82,0.46-21.81,1.06V693.91z"/>
			<path class="st2" d="M1237.69,643.94v102h-23v-102H1237.69z"/>
			<path class="st2" d="M1376.23,745.94l-22.95-22.72c-9.34-8.69-15.21-14.33-20.82-20.28h-0.53c-5.07,5.95-10.14,11.44-19.48,20.43
				l-21.61,22.57h-26.34l54.56-51.61l-52.44-50.39h27.09l23.48,23.82c6.59,6.63,11.61,11.76,16.36,17.18h0.79
				c5.01-6.03,9.5-10.7,16.09-17.18l24.27-23.82h26.82l-54.29,49.64l55.62,52.36H1376.23z"/>
		</g>
	</g>
</g>
<g id="compix_00000120553461682537860850000006360393718011980477_">
</g>
<g id="Layer_5">
</g>
<g id="r_box_1">
</g>
<g id="Layer_3">
</g>
</svg>
